<svg width="32" height="32" viewBox="0 0 32 32" fill="none" xmlns="http://www.w3.org/2000/svg">
<path d="M17.9994 19V25C17.9994 25.2652 18.1048 25.5196 18.2923 25.7071C18.4799 25.8946 18.7342 26 18.9994 26C19.2647 26 19.519 25.8946 19.7066 25.7071C19.8941 25.5196 19.9994 25.2652 19.9994 25V21.4137L25.2919 26.7075C25.4796 26.8951 25.7341 27.0006 25.9994 27.0006C26.2648 27.0006 26.5193 26.8951 26.7069 26.7075C26.8946 26.5199 27 26.2654 27 26C27 25.7346 26.8946 25.4801 26.7069 25.2925L21.4132 20H24.9994C25.2647 20 25.519 19.8946 25.7066 19.7071C25.8941 19.5196 25.9994 19.2652 25.9994 19C25.9994 18.7348 25.8941 18.4804 25.7066 18.2929C25.519 18.1054 25.2647 18 24.9994 18H18.9994C18.7342 18 18.4799 18.1054 18.2923 18.2929C18.1048 18.4804 17.9994 18.7348 17.9994 19Z" fill="white"/>
<path d="M17.9994 13.001V7.00098C17.9994 6.73576 18.1048 6.48141 18.2923 6.29387C18.4799 6.10633 18.7342 6.00098 18.9994 6.00098C19.2647 6.00098 19.519 6.10633 19.7066 6.29387C19.8941 6.48141 19.9994 6.73576 19.9994 7.00098V10.5872L25.2919 5.29348C25.4796 5.10583 25.7341 5.00042 25.9994 5.00042C26.2648 5.00042 26.5193 5.10583 26.7069 5.29348C26.8946 5.48112 27 5.73561 27 6.00098C27 6.26634 26.8946 6.52084 26.7069 6.70848L21.4132 12.001H24.9994C25.2647 12.001 25.519 12.1063 25.7066 12.2939C25.8941 12.4814 25.9994 12.7358 25.9994 13.001C25.9994 13.2662 25.8941 13.5205 25.7066 13.7081C25.519 13.8956 25.2647 14.001 24.9994 14.001H18.9994C18.7342 14.001 18.4799 13.8956 18.2923 13.7081C18.1048 13.5205 17.9994 13.2662 17.9994 13.001Z" fill="white"/>
<path d="M14.0006 19V25C14.0006 25.2652 13.8952 25.5196 13.7077 25.7071C13.5201 25.8946 13.2658 26 13.0006 26C12.7353 26 12.481 25.8946 12.2934 25.7071C12.1059 25.5196 12.0006 25.2652 12.0006 25V21.4137L6.70806 26.7075C6.52042 26.8951 6.26592 27.0006 6.00056 27.0006C5.73519 27.0006 5.4807 26.8951 5.29306 26.7075C5.10542 26.5199 5 26.2654 5 26C5 25.7346 5.10542 25.4801 5.29306 25.2925L10.5868 20H7.00056C6.73534 20 6.48099 19.8946 6.29345 19.7071C6.10591 19.5196 6.00056 19.2652 6.00056 19C6.00056 18.7348 6.10591 18.4804 6.29345 18.2929C6.48099 18.1054 6.73534 18 7.00056 18H13.0006C13.2658 18 13.5201 18.1054 13.7077 18.2929C13.8952 18.4804 14.0006 18.7348 14.0006 19Z" fill="white"/>
<path d="M14.0006 13.001V7.00098C14.0006 6.73576 13.8952 6.48141 13.7077 6.29387C13.5201 6.10633 13.2658 6.00098 13.0006 6.00098C12.7353 6.00098 12.481 6.10633 12.2934 6.29387C12.1059 6.48141 12.0006 6.73576 12.0006 7.00098V10.5872L6.70806 5.29348C6.52042 5.10583 6.26592 5.00042 6.00056 5.00042C5.73519 5.00042 5.4807 5.10583 5.29306 5.29348C5.10542 5.48112 5 5.73561 5 6.00098C5 6.26634 5.10542 6.52084 5.29306 6.70848L10.5868 12.001H7.00056C6.73534 12.001 6.48099 12.1063 6.29345 12.2939C6.10591 12.4814 6.00056 12.7358 6.00056 13.001C6.00056 13.2662 6.10591 13.5205 6.29345 13.7081C6.48099 13.8956 6.73534 14.001 7.00056 14.001H13.0006C13.2658 14.001 13.5201 13.8956 13.7077 13.7081C13.8952 13.5205 14.0006 13.2662 14.0006 13.001Z" fill="white"/>
</svg>
