<svg width="20" height="20" viewBox="0 0 20 20" fill="none" xmlns="http://www.w3.org/2000/svg">
<path d="M2.71973 6.87988V15.6799C2.71973 16.5635 3.43607 17.2799 4.31973 17.2799H15.6797C16.5634 17.2799 17.2797 16.5635 17.2797 15.6799V6.87988" stroke="#0D63D4" stroke-width="1.4"/>
<rect x="5.6001" y="10.2002" width="1.6" height="1.6" rx="0.8" fill="#0D63D4"/>
<rect x="9.2002" y="10.2002" width="1.6" height="1.6" rx="0.8" fill="#0D63D4"/>
<rect x="12.8003" y="10.2002" width="1.6" height="1.6" rx="0.8" fill="#0D63D4"/>
<rect x="5.6001" y="13.2002" width="1.6" height="1.6" rx="0.8" fill="#0D63D4"/>
<rect x="9.2002" y="13.2002" width="1.6" height="1.6" rx="0.8" fill="#0D63D4"/>
<path d="M6.47998 2.7998L6.47998 4.0798" stroke="#0D63D4" stroke-width="1.4" stroke-linecap="round"/>
<path d="M13.52 2.7998L13.52 4.0798" stroke="#0D63D4" stroke-width="1.4" stroke-linecap="round"/>
<path d="M2.71973 5.84024C2.71973 4.95658 3.43607 4.24023 4.31973 4.24023H15.6797C16.5634 4.24023 17.2797 4.95658 17.2797 5.84023V7.76023H2.71973V5.84024Z" stroke="#0D63D4" stroke-width="1.4"/>
</svg>
