<svg width="20" height="20" viewBox="0 0 20 20" fill="none" xmlns="http://www.w3.org/2000/svg">
<path d="M2.71991 6.87997V15.68C2.71991 16.5636 3.43625 17.28 4.31991 17.28H15.6799C16.5636 17.28 17.2799 16.5636 17.2799 15.68V6.87997" stroke="#A5A5A5" stroke-width="1.4"/>
<rect x="5.6001" y="10.2" width="1.6" height="1.6" rx="0.8" fill="#A5A5A5"/>
<rect x="9.2001" y="10.2" width="1.6" height="1.6" rx="0.8" fill="#A5A5A5"/>
<rect x="12.8001" y="10.2" width="1.6" height="1.6" rx="0.8" fill="#A5A5A5"/>
<rect x="5.6001" y="13.2" width="1.6" height="1.6" rx="0.8" fill="#A5A5A5"/>
<rect x="9.2001" y="13.2" width="1.6" height="1.6" rx="0.8" fill="#A5A5A5"/>
<path d="M6.48007 2.79999L6.48007 4.07999" stroke="#A5A5A5" stroke-width="1.4" stroke-linecap="round"/>
<path d="M13.5199 2.79999L13.5199 4.07999" stroke="#A5A5A5" stroke-width="1.4" stroke-linecap="round"/>
<path d="M2.71991 5.84005C2.71991 4.9564 3.43625 4.24005 4.31991 4.24005H15.6799C16.5636 4.24005 17.2799 4.9564 17.2799 5.84005V7.76005H2.71991V5.84005Z" stroke="#A5A5A5" stroke-width="1.4"/>
</svg>
