<svg width="20" height="21" viewBox="0 0 20 21" fill="none" xmlns="http://www.w3.org/2000/svg">
<path d="M2.5 7.83333H17.5M2.5 7.83333V15.6557C2.5 16.6514 2.5 17.1489 2.70436 17.5292C2.88413 17.8637 3.17076 18.136 3.52356 18.3064C3.92425 18.5 4.44906 18.5 5.4971 18.5H14.5029C15.5509 18.5 16.075 18.5 16.4757 18.3064C16.8285 18.136 17.1161 17.8637 17.2958 17.5292C17.5 17.1493 17.5 16.6524 17.5 15.6587V7.83333M2.5 7.83333V7.1224C2.5 6.12675 2.5 5.62855 2.70436 5.24826C2.88413 4.91375 3.17076 4.64199 3.52356 4.47154C3.92464 4.27778 4.45008 4.27778 5.50018 4.27778H6.25M17.5 7.83333V7.11948C17.5 6.12577 17.5 5.62818 17.2958 5.24826C17.1161 4.91375 16.8285 4.64199 16.4757 4.47154C16.0746 4.27778 15.5503 4.27778 14.5002 4.27778H13.75M6.25 4.27778H13.75M6.25 4.27778V2.5M13.75 4.27778V2.5M12.8125 11.3889L9.0625 14.9444L7.1875 13.1667" stroke="#18191C" stroke-width="1.6" stroke-linecap="round" stroke-linejoin="round"/>
</svg>
