<svg width="20" height="21" viewBox="0 0 20 21" fill="none" xmlns="http://www.w3.org/2000/svg">
<path d="M13.333 3.83366C13.7984 3.83366 14.4394 3.83366 15.0664 3.83366C15.6264 3.83366 15.9064 3.83366 16.1203 3.94265C16.3085 4.03853 16.4615 4.19151 16.5574 4.37967C16.6664 4.59358 16.6664 4.87363 16.6664 5.43373C16.6664 8.48941 16.6664 11.4696 16.6664 17.2312C16.6664 17.7929 16.6664 18.0737 16.5574 18.2877C16.4615 18.4758 16.3085 18.6288 16.1203 18.7247C15.9064 18.8337 15.6264 18.8337 15.0664 18.8337L4.93301 18.8337C4.37296 18.8337 4.09293 18.8337 3.87902 18.7247C3.69086 18.6288 3.53788 18.4758 3.442 18.2877C3.33301 18.0738 3.33301 17.7937 3.33301 17.2337C3.33301 13.0258 3.33301 8.81685 3.33301 5.43337C3.33301 4.87351 3.33301 4.59358 3.442 4.37967C3.53787 4.19151 3.69086 4.03853 3.87902 3.94265C4.09293 3.83366 4.37271 3.83366 4.93228 3.83366C5.34573 3.83366 5.88764 3.83366 6.66634 3.83366M7.99967 5.50033H11.9997C12.4664 5.50033 12.6997 5.50033 12.878 5.4095C13.0348 5.3296 13.1623 5.20212 13.2422 5.04532C13.333 4.86706 13.333 4.6337 13.333 4.16699V3.50033C13.333 3.03362 13.333 2.80026 13.2422 2.622C13.1623 2.4652 13.0348 2.33771 12.878 2.25782C12.6997 2.16699 12.4664 2.16699 11.9997 2.16699H7.99967C7.53296 2.16699 7.29961 2.16699 7.12135 2.25782C6.96455 2.33771 6.83706 2.4652 6.75717 2.622C6.66634 2.80026 6.66634 3.03362 6.66634 3.50033V4.16699C6.66634 4.6337 6.66634 4.86706 6.75717 5.04532C6.83706 5.20212 6.96455 5.3296 7.12135 5.4095C7.29961 5.50033 7.53296 5.50033 7.99967 5.50033Z" stroke="#18191C" stroke-width="1.6" stroke-linecap="round" stroke-linejoin="round"/>
<path d="M7 12.2222L8.84616 14L13 10" stroke="#18191C" stroke-width="1.6" stroke-linecap="round" stroke-linejoin="round"/>
</svg>
