<svg width="20" height="21" viewBox="0 0 20 21" fill="none" xmlns="http://www.w3.org/2000/svg">
<path d="M16.6673 10.917C16.6673 7.98171 16.6673 5.93443 16.6673 3.76712C16.6673 3.20701 16.6673 2.92696 16.5583 2.71305C16.4625 2.52488 16.3095 2.3719 16.1213 2.27603C15.9074 2.16704 15.6281 2.16703 15.0696 2.16703C12.4423 2.16701 7.57634 2.16698 4.93046 2.167C4.37275 2.16701 4.0939 2.16701 3.87999 2.276C3.69183 2.37187 3.53885 2.52486 3.44298 2.71302C3.33398 2.92693 3.33398 3.20693 3.33398 3.76694V17.2337C3.33398 17.7938 3.33398 18.0738 3.44298 18.2877C3.53885 18.4759 3.69183 18.6288 3.87999 18.7247C4.09391 18.8337 4.3738 18.8337 4.93359 18.8337C6.07191 18.8337 7.4538 18.8337 10.0007 18.8337M11.6673 9.66704H6.66732M9.16732 13.0004H6.66732M13.334 6.33371H6.66732M12.084 16.3337L13.7507 18.0004L17.5007 14.2504" stroke="#18191C" stroke-width="1.6" stroke-linecap="round" stroke-linejoin="round"/>
</svg>
