<svg width="149" height="54" viewBox="0 0 149 54" fill="none" xmlns="http://www.w3.org/2000/svg">
<path d="M19.8867 0.878906V24.4766H15.9219V0.878906H19.8867ZM14.9102 0.878906V24.4766H11V20.1289C9.59635 20.0742 8.46615 19.819 7.60938 19.3633C6.9349 18.9987 6.08724 18.2695 5.06641 17.1758C4.53776 17.8867 3.83594 18.5521 2.96094 19.1719C1.88542 19.9375 0.946615 20.2839 0.144531 20.2109V16.6289C1.07422 16.3919 1.82161 15.4076 2.38672 13.6758C2.84245 12.2904 3.07031 10.9141 3.07031 9.54688V4.65234H0.417969V1.61719H9.57812V4.65234H7.11719V9.54688C7.09896 10.9505 7.3724 12.3177 7.9375 13.6484C8.6849 15.3984 9.70573 16.3099 11 16.3828V11.4883H8.59375V8.17969H11V0.878906H14.9102ZM44.3014 0.90625V24.4766H40.1998V13.5117H38.5866C38.2584 15.8268 37.429 17.7682 36.0983 19.3359C34.7311 20.9401 33.1998 21.7422 31.5045 21.7422C29.5358 21.7422 27.8405 20.7396 26.4186 18.7344C24.9967 16.7292 24.2858 14.3594 24.2858 11.625C24.2858 8.85417 24.9967 6.44792 26.4186 4.40625C27.8405 2.36458 29.5358 1.34375 31.5045 1.34375C33.2728 1.34375 34.8405 2.20052 36.2077 3.91406C37.5748 5.6276 38.386 7.72396 38.6413 10.2031H40.1178V0.90625H44.3014ZM31.5045 18.5156C32.3613 18.5156 33.0814 17.7956 33.6647 16.3555C34.2116 15.0065 34.485 13.4297 34.485 11.625C34.485 9.78385 34.2116 8.1888 33.6647 6.83984C33.0814 5.39974 32.3613 4.67969 31.5045 4.67969C30.6295 4.67969 29.9004 5.39974 29.317 6.83984C28.7702 8.1888 28.4967 9.78385 28.4967 11.625C28.4967 13.4297 28.7702 15.0065 29.317 16.3555C29.9004 17.7956 30.6295 18.5156 31.5045 18.5156ZM61.9075 1.48047V12.9102H52.4192C51.3072 12.9102 50.3684 12.5911 49.6028 11.9531C48.8372 11.3151 48.4544 10.5312 48.4544 9.60156V1.48047H61.9075ZM70.1927 5.63672V8.94531H67.7591V19.1172V19.5547C67.7591 21.2318 66.802 22.6081 64.888 23.6836C63.1015 24.7044 60.9869 25.2148 58.5442 25.2148C56.0833 25.2148 53.9596 24.7044 52.1731 23.6836C50.2591 22.6081 49.302 21.2318 49.302 19.5547C49.302 17.8776 50.2591 16.5013 52.1731 15.4258C53.9596 14.4414 56.0833 13.9492 58.5442 13.9492C59.4557 13.9492 60.3216 14.0221 61.1419 14.168C61.9622 14.3138 62.7734 14.5508 63.5755 14.8789V0.90625H67.7591V5.63672H70.1927ZM52.3372 9.60156H58.0247V4.76172H52.3372V9.60156ZM58.5442 21.9883C59.9296 21.9883 61.0781 21.7786 61.9895 21.3594C62.9921 20.9219 63.4934 20.3203 63.4934 19.5547C63.4934 18.7891 62.9921 18.1875 61.9895 17.75C61.0598 17.349 59.9114 17.1484 58.5442 17.1484C57.1588 17.1484 56.0013 17.349 55.0716 17.75C54.0872 18.1875 53.595 18.7891 53.595 19.5547C53.595 20.3203 54.0872 20.9219 55.0716 21.3594C56.0013 21.7786 57.1588 21.9883 58.5442 21.9883ZM99.1431 10.4492V14.0859H98.6509C96.9739 14.0859 95.1874 13.5117 93.2916 12.3633C91.7056 11.4154 90.4478 10.3672 89.5181 9.21875C88.6249 10.3672 87.3762 11.4154 85.772 12.3633C83.8762 13.5117 82.0897 14.0859 80.4127 14.0859H79.9478V10.4492C80.6588 10.4492 81.4153 10.2669 82.2173 9.90234C83.0377 9.51953 83.8215 8.98177 84.5689 8.28906C85.2616 7.63281 85.8632 6.71224 86.3736 5.52734C86.8658 4.41536 87.1119 3.47656 87.1119 2.71094V1.69922H91.9791V2.71094C91.9791 3.49479 92.2069 4.43359 92.6627 5.52734C93.1731 6.69401 93.7838 7.61458 94.4947 8.28906C95.2239 8.96354 95.9986 9.49219 96.8189 9.875C97.6392 10.2578 98.414 10.4492 99.1431 10.4492ZM99.8541 21.0039V24.3672H79.2369V21.0039H99.8541ZM125.034 10.2031V13.5117H122.683V24.4766H118.499V0.90625H122.683V10.2031H125.034ZM116.859 1.42578V21.3867H107.534C106.641 21.3867 105.803 21.013 105.019 20.2656C104.217 19.4818 103.825 18.6432 103.843 17.75V1.42578H116.859ZM107.945 18.0781H112.757V4.76172H107.945V18.0781ZM147.617 1.58984V4.89844H133.48V7.00391H147.426V10.3125H133.48V12.418H147.535V15.6992H133.015C132.086 15.6992 131.238 15.3438 130.472 14.6328C129.67 13.8854 129.269 13.0286 129.269 12.0625V1.58984H147.617ZM148 20.5664V23.8203H128.695V20.5664H148ZM16.4297 49.9844V52.7969H0.421875V49.9844H6.77344V45.0156H4.57031C3.33594 45.0156 2.42969 44.7188 1.85156 44.125C1.24219 43.4844 0.9375 42.4609 0.9375 41.0547V33.25H4.52344V42.1562H12.5156V38.4766H5.78906V35.6641H12.5156V33.25H16.125V45.0156H10.3594V49.9844H16.4297ZM26.7216 33.6484C28.3153 33.6484 29.7372 34.0859 30.9872 34.9609C32.4247 35.9766 33.1434 37.3125 33.1434 38.9688C33.1434 40.6094 32.4247 41.9375 30.9872 42.9531C29.7372 43.8438 28.3153 44.2891 26.7216 44.2891C25.1278 44.2891 23.7059 43.8438 22.4559 42.9531C21.0184 41.9219 20.2997 40.5938 20.2997 38.9688C20.2997 37.3125 21.0184 35.9766 22.4559 34.9609C23.7059 34.0859 25.1278 33.6484 26.7216 33.6484ZM39.4716 37.2344V40.0469H37.4091V53.6406H24.7294C23.87 53.6406 23.1122 53.3516 22.4559 52.7734C21.7841 52.1797 21.4481 51.4375 21.4481 50.5469V45.2031H25.0106V50.8047H33.7997V33.0859H37.4091V37.2344H39.4716ZM26.7216 41.4062C27.4091 41.4062 28.0341 41.1875 28.5966 40.75C29.2528 40.2812 29.5809 39.6875 29.5809 38.9688C29.5809 38.2188 29.2528 37.5938 28.5966 37.0938C28.0184 36.6562 27.3934 36.4375 26.7216 36.4375C26.0028 36.4375 25.37 36.6484 24.8231 37.0703C24.1825 37.5391 23.8622 38.1719 23.8622 38.9688C23.8622 39.6719 24.1825 40.2656 24.8231 40.75C25.4012 41.1875 26.0341 41.4062 26.7216 41.4062ZM60.3337 37.6328V40.4688H58.2712V53.2188H46.6462C45.7869 53.2188 45.0369 52.9297 44.3962 52.3516C43.7087 51.7422 43.365 51 43.365 50.125V45.1094H46.9509V50.4062H54.7087V44.125H42.0994V41.3125H44.2791V38.5938H47.865V41.3125H50.0916V36.4844H42.6384V33.6484H50.0916C51.2791 33.6484 52.1775 33.9375 52.7869 34.5156C53.3806 35.0625 53.6775 35.8672 53.6775 36.9297V41.3125H54.7087V33.0625H58.2712V37.6328H60.3337ZM79.8366 33.0625V53.2656H76.2506V50.6172H66.7584C65.8991 50.6172 65.1569 50.2969 64.5319 49.6562C63.9381 49.0312 63.6413 48.3359 63.6413 47.5703V39.5078H71.4928V36.3438H63.7584V33.5078H75.0788V42.3438H67.2506V47.8047H76.2506V33.0625H79.8366ZM106.561 38.0078V40.4922H90.4125V38.0078H92.7094V35.5938H90.4125L90.4359 33.1094H106.561V35.5938H104.311V38.0078H106.561ZM106.608 41.3125V43.8906H90.225V41.3125H106.608ZM106.28 44.7344V50.3359H94.2328V51.2266H106.256V53.7109H94.0922C93.2172 53.7109 92.4437 53.4609 91.7719 52.9609C91.0219 52.4141 90.6469 51.7109 90.6469 50.8516V47.9453H102.67V47.2188H90.6469V44.7344H106.28ZM96.3187 38.0078H100.678V35.5938H96.3187V38.0078ZM127.892 33.0391V45.5547H124.681V39.9531H123.486V44.0781H114.228C113.384 44.0781 112.673 43.7734 112.095 43.1641C111.548 42.5859 111.275 41.9141 111.275 41.1484V37.375H116.126V36.0156H111.275V33.4141H119.501V39.9766H114.603V41.3594H120.228L120.251 33.0391H123.486V37.1172H124.681V33.0391H127.892ZM124.329 49.2578C124.876 49.7734 125.618 50.1484 126.556 50.3828C127.212 50.5547 127.993 50.6562 128.9 50.6875L127.845 53.6172H127.4C125.978 53.6172 124.626 53.2031 123.345 52.375C122.22 51.6719 121.267 50.75 120.486 49.6094C119.642 50.75 118.665 51.6719 117.556 52.375C116.243 53.2031 114.892 53.6172 113.501 53.6172H113.033L111.978 50.6875C112.884 50.6406 113.658 50.5391 114.298 50.3828C115.251 50.1484 116.009 49.7734 116.572 49.2578C117.259 48.6172 117.79 47.9297 118.165 47.1953C118.556 46.4766 118.751 45.7734 118.751 45.0859V44.8516H122.103L122.126 45.0859C122.126 45.7734 122.314 46.4766 122.689 47.1953C123.064 47.9297 123.611 48.6172 124.329 49.2578ZM148.848 42.6016V45.4141H132.465V42.6016H138.957V41.5H132.652V38.7812H134.949V35.8281H132.652L132.676 33.1094H148.801V35.8281H146.551V38.7812H148.801V41.5H142.567V42.6016H148.848ZM148.52 46.2812V53.3359H136.004C134.926 53.3359 134.121 53.0234 133.59 52.3984C133.074 51.8203 132.817 50.9766 132.817 49.8672V46.2812H148.52ZM138.559 38.7812H142.918V35.8281H138.559V38.7812ZM136.426 50.5H144.934V49.0938H136.426V50.5Z" fill="#18191C"/>
</svg>
