<svg width="48" height="48" viewBox="0 0 48 48" fill="none" xmlns="http://www.w3.org/2000/svg">
<path d="M23.8862 7.22763H16.006C12.8536 7.22763 11.2774 7.22763 10.0733 7.84112C9.01423 8.38077 8.15314 9.24185 7.61349 10.301C7 11.505 7 13.0812 7 16.2336V31.994C7 35.1464 7 36.7226 7.61349 37.9267C8.15314 38.9858 9.01423 39.8469 10.0733 40.3865C11.2774 41 12.8536 41 16.006 41H31.7664C34.9188 41 36.495 41 37.699 40.3865C38.7581 39.8469 39.6192 38.9858 40.1589 37.9267C40.7724 36.7226 40.7724 35.1464 40.7724 31.994V24.1138M17.3193 30.6807H20.4611C21.379 30.6807 21.8379 30.6807 22.2697 30.577C22.6526 30.4851 23.0187 30.3334 23.3544 30.1277C23.7331 29.8956 24.0576 29.5711 24.7066 28.9221L39.8343 13.7945C41.3886 12.2401 41.3886 9.72008 39.8343 8.16575C38.2799 6.61142 35.7599 6.61142 34.2055 8.16574L19.0778 23.2934C18.4288 23.9424 18.1043 24.2669 17.8723 24.6456C17.6665 24.9813 17.5149 25.3474 17.423 25.7303C17.3193 26.1621 17.3193 26.621 17.3193 27.5389V30.6807Z" stroke="white" stroke-width="4" stroke-linecap="round" stroke-linejoin="round"/>
</svg>
