<svg width="20" height="21" viewBox="0 0 20 21" fill="none" xmlns="http://www.w3.org/2000/svg">
<path fill-rule="evenodd" clip-rule="evenodd" d="M19.1673 10.4997C19.1673 15.5623 15.0633 19.6663 10.0007 19.6663C4.93804 19.6663 0.833984 15.5623 0.833984 10.4997C0.833984 5.43706 4.93804 1.33301 10.0007 1.33301C15.0633 1.33301 19.1673 5.43706 19.1673 10.4997ZM12.7507 7.74967C12.7507 9.26846 11.5194 10.4997 10.0007 10.4997C8.48187 10.4997 7.25065 9.26846 7.25065 7.74967C7.25065 6.23089 8.48187 4.99967 10.0007 4.99967C11.5194 4.99967 12.7507 6.23089 12.7507 7.74967ZM10.0006 18.2913C11.636 18.2913 13.1537 17.7875 14.407 16.9266C14.9605 16.5464 15.1971 15.8221 14.8753 15.2326C14.2081 14.0107 12.8334 13.2497 10.0006 13.2497C7.16787 13.2497 5.79312 14.0107 5.12595 15.2326C4.80411 15.822 5.04066 16.5463 5.59419 16.9266C6.84749 17.7875 8.36522 18.2913 10.0006 18.2913Z" fill="#FF8C14"/>
</svg>
